# xmcd CD database file
#
# Track frame offsets:
#	150
#	16339
#	32265
#	47636
#	64826
#	86884
#	102887
#	119231
#	137275
#	154696
#	169721
#	185115
#	200649
#	216215
#	232848
#	249636
#	273699
#	294233
#
# Disc length: 4084 seconds
#
# Revision: 1
# Processed by: cddbd v1.5.2PL0 Copyright (c) Steve Scherf et al.
# Submitted via: jetAudio 7
#
DISCID=030ff212
DTITLE=Various Artist - 30 Goue Country Sokkie Treffers CD1
DYEAR=2005
DGENRE=Pop
TTITLE0=Redneck Woman
TTITLE1=Rip Off The Knob
TTITLE2=The Gambler
TTITLE3=Somebody Like You
TTITLE4=Wicked Games
TTITLE5=Party For Two
TTITLE6=Girls Lie Too
TTITLE7=Follow Me
TTITLE8=I Ain't Missing You
TTITLE9=Altyd Jy
TTITLE10=Here For The Party
TTITLE11=Rio
TTITLE12=I Wanna Live
TTITLE13=Old Flames
TTITLE14=Just One More Dance
TTITLE15=New Country Medley - Whiskey girl,Lost and found,It must 
TTITLE16=Country Medley - Distant drums,Please release Me,Baby B
TTITLE17=Country Party Medley - The good,the bad and
EXTD=
EXTT0=
EXTT1=
EXTT2=
EXTT3=
EXTT4=
EXTT5=
EXTT6=
EXTT7=
EXTT8=
EXTT9=
EXTT10=
EXTT11=
EXTT12=
EXTT13=
EXTT14=
EXTT15=
EXTT16=
EXTT17=
PLAYORDER=
